# xmcd
#
# Track frame offsets:
#	150
#	13275
#	24600
#	37800
#	52275
#	64125
#	74625
#	85950
#	98325
#	109800
#	122175
#	134850
#	148425
#	161475
#	172575
#	183525
#	195300
#	209550
#	220575
#	233100
#	246675
#	260100
#	274350
#	285450
#
# Disc length: 3941 seconds
#
# Revision: 7
# Processed by: cddbd v1.5.2PL0 Copyright (c) Steve Scherf et al.
# Submitted via: dBpowerAMP V4.0
#
DISCID=7f0f6318
DTITLE=Various Artist - Country USA - 1952
DYEAR=1952
DGENRE=Country
TTITLE0=Hank Williams - Jambalaya (On The Bayou)
TTITLE1=Tennessee Ernie Ford - Blackberry Boogie
TTITLE2=Webb Pierce - That Heart Belongs To Me
TTITLE3=Red Foley - Midnight
TTITLE4=Carl Smith - Are You Teasing Me
TTITLE5=Lefty Frizzell - Give Me More, More, More (Of Your Kisses)
TTITLE6=Eddy Arnold - A Full Time Job
TTITLE7=Hank Thompson - The Wild Side Of Life
TTITLE8=Kitty Wells - It Wasn't God Who Made Honky Tonk Angels
TTITLE9=Hank Williams - Half As Much
TTITLE10=Webb Pierce - Back Street Affair
TTITLE11=George Morgan - Almost
TTITLE12=Ernest Tubb and Red Foley - Too Old To Cut The Mustard
TTITLE13=Lefty Frizzell - I'm An Old, Old Man (Tryin' To Live While I Can)
TTITLE14=Carl Smith - (When You Feel Like You're In Love) Don't Just Stand There
TTITLE15=Eddy Arnold - Easy On The Eyes
TTITLE16=Slim Whitman - Indian Love Call
TTITLE17=Hank Thompson - Waiting In The Lobby Of Your Heart
TTITLE18=Skeets McDonald - Don't Let The Stars Get In Your Eyes
TTITLE19=Webb Pierce - Wondering
TTITLE20=Lefty Frizzell - Don't Stay Away (Till Love Grows Cold)
TTITLE21=Ernest Tubb - Missing In Action
TTITLE22=Hank Williams - I'll Never Get Out Of This World Alive
TTITLE23=Hank Snow - The Gold Rush Is Over
EXTD=
EXTT0=
EXTT1=
EXTT2=
EXTT3=
EXTT4=
EXTT5=
EXTT6=
EXTT7=
EXTT8=
EXTT9=
EXTT10=
EXTT11=
EXTT12=
EXTT13=
EXTT14=
EXTT15=
EXTT16=
EXTT17=
EXTT18=
EXTT19=
EXTT20=
EXTT21=
EXTT22=
EXTT23=
PLAYORDER=
